<svg width="166" height="55" viewBox="0 0 166 55" fill="none" xmlns="http://www.w3.org/2000/svg">
<path d="M59.645 41H50V12H59.9505C62.8697 12 65.3767 12.5806 67.4715 13.7417C69.5663 14.8934 71.1714 16.5501 72.2867 18.7119C73.4117 20.8643 73.9742 23.4461 73.9742 26.4575C73.9742 29.4784 73.4069 32.0744 72.2722 34.2456C71.1472 36.4168 69.5179 38.0877 67.3842 39.2583C65.2506 40.4194 62.6708 41 59.645 41ZM54.4952 37.1768H59.3977C61.6671 37.1768 63.5534 36.7614 65.0566 35.9307C66.5599 35.0905 67.6849 33.8774 68.4316 32.2915C69.1784 30.6961 69.5518 28.7515 69.5518 26.4575C69.5518 24.1825 69.1784 22.252 68.4316 20.666C67.6946 19.0801 66.5938 17.8765 65.1294 17.0552C63.6649 16.2339 61.8465 15.8232 59.6741 15.8232H54.4952V37.1768Z" fill="#3D00E9"/>
<path d="M79.5641 41V12H98.243V15.7666H84.0593V24.6025H97.2684V28.355H84.0593V37.2334H98.4176V41H79.5641Z" fill="#3D00E9"/>
<path d="M106.764 41H101.993L112.714 12H117.908L128.629 41H123.858L115.435 17.2676H115.202L106.764 41ZM107.564 29.6436H123.043V33.3252H107.564V29.6436Z" fill="#3D00E9"/>
<path d="M132.931 41V12H143.551C145.859 12 147.775 12.387 149.297 13.1611C150.83 13.9352 151.974 15.0067 152.731 16.3755C153.487 17.7349 153.865 19.3066 153.865 21.0908C153.865 22.8656 153.482 24.4279 152.716 25.7778C151.96 27.1183 150.815 28.1615 149.283 28.9072C147.76 29.653 145.845 30.0259 143.537 30.0259H135.492V26.2593H143.129C144.584 26.2593 145.767 26.0563 146.679 25.6504C147.6 25.2445 148.274 24.6545 148.701 23.8804C149.128 23.1063 149.341 22.1764 149.341 21.0908C149.341 19.9958 149.123 19.047 148.686 18.2446C148.26 17.4422 147.586 16.8286 146.664 16.4038C145.753 15.9696 144.555 15.7524 143.071 15.7524H137.427V41H132.931ZM147.639 27.916L155 41H149.879L142.664 27.916H147.639Z" fill="#3D00E9"/>
<circle cx="163" cy="39" r="3" fill="#9773FF"/>
<path fill-rule="evenodd" clip-rule="evenodd" d="M9 7C4.02944 7 0 11.0294 0 16V36.3006C0 41.2711 4.02944 45.3006 9 45.3006H30.2826C35.2532 45.3006 39.2826 41.2711 39.2826 36.3006V16C39.2826 11.0294 35.2532 7 30.2826 7H9ZM19.3117 36.6234C25.0067 36.6234 29.6234 32.0067 29.6234 26.3117C29.6234 20.6167 25.0067 16 19.3117 16C13.6167 16 9 20.6167 9 26.3117C9 32.0067 13.6167 36.6234 19.3117 36.6234Z" fill="#9773FF"/>
</svg>
